<?xml version="1.0" encoding="utf-8"?>
<!-- Generator: Adobe Illustrator 16.0.3, SVG Export Plug-In . SVG Version: 6.00 Build 0)  -->
<!DOCTYPE svg PUBLIC "-//W3C//DTD SVG 1.1//EN" "http://www.w3.org/Graphics/SVG/1.1/DTD/svg11.dtd">
<svg version="1.1" id="Layer_1" xmlns="http://www.w3.org/2000/svg" xmlns:xlink="http://www.w3.org/1999/xlink" x="0px" y="0px"
	 width="100px" height="100px" viewBox="0 0 100 100" enable-background="new 0 0 100 100" xml:space="preserve">
<path d="M52.7,16c-0.9-0.1-1.8,0-2.7,0c0,0,0,0,0,0c-2,0-3.7,1.6-3.7,3.6c0,2,1.7,3.6,3.7,3.6c0.7,0,1.4,0,2.1,0.1
	C66,24.4,76.9,36.1,76.9,49.9c0,14.7-12.1,26.7-26.9,26.7c-14.8,0-26.9-12-26.9-26.7c0-5.8,1.8-11.3,5.3-15.9l4.1,3
	c0.8,0.6,1.4,0.3,1.3-0.7l-1.4-12.1c-0.1-1-1-1.7-2-1.5l-12.1,2.3c-1,0.2-1.1,0.8-0.3,1.4l4.5,3.3c-4.4,5.9-6.8,12.9-6.8,20.3
	C15.7,68.7,31.1,84,50,84c18.9,0,34.3-15.2,34.3-34C84.3,32.3,70.4,17.4,52.7,16z"/>
</svg>
